<svg xmlns="http://www.w3.org/2000/svg" viewBox="0 0 126.38 36.08"><defs><style>.cls-1{fill:#2a2c3e;}</style></defs><g id="Capa_2" data-name="Capa 2"><g id="Capa_1-2" data-name="Capa 1"><path class="cls-1" d="M19.47,10.29v.79c0,5.46-3.85,9.66-9.42,9.66A10.37,10.37,0,0,1,10.32,0a10.41,10.41,0,0,1,8.09,3.85L16.68,5.51a8,8,0,0,0-6.26-3.24,8,8,0,0,0-7.94,8.07c0,4.17,3.43,8.13,7.73,8.13,3.09,0,6.41-2.67,6.52-5.91H11.58V10.29Z"></path><path class="cls-1" d="M47.33,18.05h6.05v2.27H44.86V.42h2.47Z"></path><path class="cls-1" d="M59.77.42H70.45V2.69h-8.2V9.24h8.2v2.27h-8.2v6.54h8.2v2.27H59.77Z"></path><path class="cls-1" d="M103.12,20.32h-2.48V.42h2.48Z"></path><path class="cls-1" d="M37.93,20.32H40.6L31.1.42,29.77,3.21h0L21.6,20.32h2.66l1.79-3.75H36.14Zm-10.79-6,4-8.3,4,8.3Z"></path><path class="cls-1" d="M123.71,20.32h2.67L116.88.42l-1.33,2.79h0l-8.17,17.11H110l1.79-3.75h10.09Zm-10.79-6,4-8.3,4,8.3Z"></path><polygon class="cls-1" points="91.77 0.42 91.77 16.63 79.32 0.42 76.84 0.42 76.84 20.32 79.32 20.32 79.32 4.11 91.77 20.32 94.25 20.32 94.25 0.42 91.77 0.42"></polygon><path class="cls-1" d="M32,31.33h4.85V27.74h1V36h-1V32.3H32V36H31V27.74h1Z"></path><path class="cls-1" d="M49.19,31.85a4.26,4.26,0,1,1-4.26-4.24A4.1,4.1,0,0,1,49.19,31.85Zm-7.43,0a3.18,3.18,0,1,0,3.17-3.24A3.09,3.09,0,0,0,41.76,31.85Z"></path><path class="cls-1" d="M57.31,29.36a4.33,4.33,0,0,0-2.44-.76c-1.2,0-2.06.54-2.06,1.43,0,.74.63,1.12,1.86,1.28l.73.08c1.39.18,2.58.74,2.58,2.19,0,1.64-1.49,2.49-3.27,2.49A5.32,5.32,0,0,1,51.47,35l.57-.82a4.34,4.34,0,0,0,2.67.91c1.23,0,2.19-.5,2.19-1.42s-.68-1.13-2-1.29l-.77-.09c-1.35-.17-2.43-.8-2.43-2.2,0-1.58,1.41-2.47,3.14-2.47a5,5,0,0,1,3,.9Z"></path><path class="cls-1" d="M61.76,32.67V36h-1V27.74h3.12c1.86,0,2.91.93,2.91,2.46s-1.05,2.47-2.91,2.47Zm0-4v3h2.07c1.22,0,1.86-.49,1.86-1.49s-.64-1.49-1.86-1.49Z"></path><path class="cls-1" d="M70.44,36h-1V27.74h1Z"></path><path class="cls-1" d="M79.36,28.72h-2.8V36h-1V28.72h-2.8v-1h6.63Z"></path><path class="cls-1" d="M88,36H86.92L86,33.71H82L81.13,36H80.06l3.34-8.22h1.28Zm-5.61-3.23h3.2l-1.59-4Z"></path><path class="cls-1" d="M96,36H90.28V27.74h1V35H96Z"></path></g></g></svg>